HIERARCHY
ROOT Hips
{
  OFFSET -90.443 85.0611 17.5758
  CHANNELS 6 Xposition Yposition Zposition Zrotation Xrotation Yrotation
  JOINT Spine
  {
    OFFSET 0.375892 0.0126102 8.57058
    CHANNELS 6 Xposition Yposition Zposition Zrotation Xrotation Yrotation
    JOINT Spine1
    {
      OFFSET 0 0 12.2259
      CHANNELS 6 Xposition Yposition Zposition Zrotation Xrotation Yrotation
      JOINT Spine2
      {
        OFFSET 0 0 14.2636
        CHANNELS 6 Xposition Yposition Zposition Zrotation Xrotation Yrotation
        JOINT Neck
        {
          OFFSET 0 0 14.2636
          CHANNELS 6 Xposition Yposition Zposition Zrotation Xrotation Yrotation
          JOINT Head
          {
            OFFSET 0.863006 4.34015 8.57778
            CHANNELS 6 Xposition Yposition Zposition Zrotation Xrotation Yrotation
            End Site
            {
              OFFSET 0 0 0
            }
          }
        }
        JOINT LeftShoulder
        {
          OFFSET -2.62842 -0.756112 5.10292
          CHANNELS 6 Xposition Yposition Zposition Zrotation Xrotation Yrotation
          JOINT LeftArm
          {
            OFFSET -15.9557 0 0
            CHANNELS 6 Xposition Yposition Zposition Zrotation Xrotation Yrotation
            JOINT LeftForeArm
            {
              OFFSET -22.6608 0 0
              CHANNELS 6 Xposition Yposition Zposition Zrotation Xrotation Yrotation
              JOINT LeftForeArmRoll
              {
                OFFSET -11.8302 0 0
                CHANNELS 6 Xposition Yposition Zposition Zrotation Xrotation Yrotation
                JOINT LeftHand
                {
                  OFFSET -11.8302 0 0
                  CHANNELS 6 Xposition Yposition Zposition Zrotation Xrotation Yrotation
                  End Site
                  {
                    OFFSET 0 0 0
                  }
                }
              }
            }
          }
        }
        JOINT RightShoulder
        {
          OFFSET 2.71631 -0.85971 5.09985
          CHANNELS 6 Xposition Yposition Zposition Zrotation Xrotation Yrotation
          JOINT RightArm
          {
            OFFSET 16.2908 0 0
            CHANNELS 6 Xposition Yposition Zposition Zrotation Xrotation Yrotation
            JOINT RightForeArm
            {
              OFFSET 24.1043 0 0
              CHANNELS 6 Xposition Yposition Zposition Zrotation Xrotation Yrotation
              JOINT RightForeArmRoll
              {
                OFFSET 10.9796 0 0
                CHANNELS 6 Xposition Yposition Zposition Zrotation Xrotation Yrotation
                JOINT RightHand
                {
                  OFFSET 10.9796 0 0
                  CHANNELS 6 Xposition Yposition Zposition Zrotation Xrotation Yrotation
                  End Site
                  {
                    OFFSET 0 0 0
                  }
                }
              }
            }
          }
        }
      }
    }
  }
  JOINT LeftUpLeg
  {
    OFFSET -7.73585 -0.626045 -0.132254
    CHANNELS 6 Xposition Yposition Zposition Zrotation Xrotation Yrotation
    JOINT LeftLeg
    {
      OFFSET 0 -0.344939 -39.5261
      CHANNELS 6 Xposition Yposition Zposition Zrotation Xrotation Yrotation
      JOINT LeftFoot
      {
        OFFSET 0 -1.9824 -37.8264
        CHANNELS 6 Xposition Yposition Zposition Zrotation Xrotation Yrotation
        JOINT LeftToeBase
        {
          OFFSET 0 9.39699 -5.78644
          CHANNELS 6 Xposition Yposition Zposition Zrotation Xrotation Yrotation
          End Site
          {
            OFFSET 0 0 0
          }
        }
      }
    }
  }
  JOINT RightUpLeg
  {
    OFFSET 7.73585 -0.626045 -0.132254
    CHANNELS 6 Xposition Yposition Zposition Zrotation Xrotation Yrotation
    JOINT RightLeg
    {
      OFFSET 0 -0.340593 -39.0281
      CHANNELS 6 Xposition Yposition Zposition Zrotation Xrotation Yrotation
      JOINT RightFoot
      {
        OFFSET 0 -2.02699 -38.6773
        CHANNELS 6 Xposition Yposition Zposition Zrotation Xrotation Yrotation
        JOINT RightToeBase
        {
          OFFSET 0 9.2383 -5.02314
          CHANNELS 6 Xposition Yposition Zposition Zrotation Xrotation Yrotation
          End Site
          {
            OFFSET 0 0 0
          }
        }
      }
    }
  }
}
MOTION
Frames:	5
Frame Time:	0.02
-90.1077 84.6386 18.4703 -125.575 85.4566 -56.217 0.375892 0.0126102 8.57058 -2.15192 6.31849 2.5346 2.84217e-14 -3.55271e-15 12.2259 1.78575 -7.33064 -0.460192 -1.42109e-14 1.77636e-15 14.2636 0.163331 -2.76695 -0.317221 1.42109e-14 -3.55271e-15 14.2636 8.50568 10.8265 -1.76643 0.863006 4.34015 8.57778 -11.1729 -3.65347 -1.1846 -2.62842 -0.756112 5.10292 -1.23697 0.3006 -8.75265 -15.9557 7.10543e-15 0 -74.4586 -15.7062 -62.6524 -22.6608 -2.13163e-14 -3.55271e-14 -23.5003 27.644 1.5605 -11.8302 9.9476e-14 1.06581e-14 3.18055e-15 -9.54166e-15 -0 -11.8302 0 -6.03961e-14 10.2713 -3.21317 1.53446 2.71631 -0.85971 5.09985 2.60295 -1.45965 11.904 16.2908 -1.06581e-14 2.84217e-14 43.9772 1.16355 57.9724 24.1043 7.10543e-15 0 19.1308 1.72793 8.16384 10.9796 3.19744e-14 -1.42109e-14 1.43125e-14 -9.54166e-15 -0 10.9796 -1.77636e-14 -1.42109e-14 -12.7093 2.55825 -6.58109 -7.73585 -0.626045 -0.132254 5.25159 14.7333 2.38593 1.42109e-14 -0.344939 -39.5261 -2.32475 -16.0435 -0.0410245 -3.36087e-11 -1.9824 -37.8264 -2.76236 7.44609 -0.195529 -8.70401e-08 9.39699 -5.78644 -0.0392104 1.27306 -0.601603 7.73585 -0.626045 -0.132254 -12.2088 14.8681 1.71844 5.68434e-14 -0.340593 -39.0281 -0.876582 -18.7507 -3.1706 -4.34369e-10 -2.02699 -38.6773 2.96442 8.09884 2.92338 1.51919e-07 9.2383 -5.02314 -0.0833073 0.759535 0.154294 
-90.1161 84.6379 18.4477 -125.429 85.4641 -56.3628 0.375892 0.0126102 8.57058 -2.15195 6.30743 2.53139 4.26326e-14 -7.10543e-15 12.2259 1.78416 -7.33523 -0.459371 0 0 14.2636 0.16191 -2.77009 -0.317745 0 3.55271e-15 14.2636 8.50538 10.8243 -1.76577 0.863006 4.34015 8.57778 -11.1733 -3.65722 -1.1847 -2.62842 -0.756112 5.10292 -1.24294 0.291849 -8.77502 -15.9557 1.06581e-14 1.42109e-14 -74.4648 -15.683 -62.6627 -22.6608 -2.13163e-14 -2.13163e-14 -23.5159 27.6395 1.56114 -11.8302 9.9476e-14 1.77636e-14 -1.59028e-15 3.18055e-15 9.54166e-15 -11.8302 -1.42109e-14 -5.68434e-14 10.271 -3.21332 1.53328 2.71631 -0.85971 5.09985 2.61053 -1.45863 11.9233 16.2908 -7.10543e-15 0 43.9822 1.18611 57.977 24.1043 0 0 19.1387 1.73146 8.17018 10.9796 2.4869e-14 -1.42109e-14 9.54166e-15 -9.54166e-15 9.54166e-15 10.9796 -1.77636e-14 -2.84217e-14 -12.7103 2.5577 -6.57956 -7.73585 -0.626045 -0.132254 5.25057 14.7413 2.38829 2.84217e-14 -0.344939 -39.5261 -2.32461 -16.045 -0.0392499 -3.36087e-11 -1.9824 -37.8264 -2.76207 7.44301 -0.195327 -8.70401e-08 9.39699 -5.78644 -0.0380655 1.27233 -0.602181 7.73585 -0.626045 -0.132254 -12.2086 14.8745 1.72321 2.84217e-14 -0.340593 -39.0281 -0.87502 -18.7524 -3.16848 -4.34369e-10 -2.02699 -38.6773 2.96552 8.09719 2.9238 1.51919e-07 9.2383 -5.02314 -0.0829775 0.759406 0.154518 
-90.1234 84.6373 18.4225 -125.278 85.4718 -56.514 0.375892 0.0126102 8.57058 -2.15287 6.29771 2.52806 4.26326e-14 -7.10543e-15 12.2259 1.78251 -7.33907 -0.4585 -1.42109e-14 0 14.2636 0.160381 -2.77354 -0.31793 1.42109e-14 3.55271e-15 14.2636 8.50492 10.8214 -1.76502 0.863006 4.34015 8.57778 -11.1737 -3.66098 -1.18323 -2.62842 -0.756112 5.10292 -1.24703 0.288589 -8.78674 -15.9557 7.10543e-15 0 -74.4678 -15.6655 -62.6665 -22.6608 -4.26326e-14 -2.84217e-14 -23.5289 27.6352 1.5619 -11.8302 8.52651e-14 1.77636e-14 1.59028e-15 -9.54166e-15 6.36111e-15 -11.8302 -1.42109e-14 -6.03961e-14 10.2707 -3.21349 1.53305 2.71631 -0.85971 5.09985 2.61297 -1.45642 11.9372 16.2908 -1.06581e-14 0 43.9849 1.2026 57.9804 24.1043 0 0 19.1445 1.73373 8.17545 10.9796 4.9738e-14 0 1.11319e-14 6.36111e-15 6.36111e-15 10.9796 -1.42109e-14 -4.26326e-14 -12.7111 2.55736 -6.57828 -7.73585 -0.626045 -0.132254 5.24952 14.7508 2.39062 1.42109e-14 -0.344939 -39.5261 -2.32446 -16.0464 -0.0375526 -3.35802e-11 -1.9824 -37.8264 -2.76177 7.44021 -0.195152 -8.70401e-08 9.39699 -5.78644 -0.0369431 1.27159 -0.602763 7.73585 -0.626045 -0.132254 -12.2082 14.8797 1.72685 4.26326e-14 -0.340593 -39.0281 -0.873306 -18.7541 -3.16589 -4.34369e-10 -2.02699 -38.6773 2.96664 8.0955 2.92415 1.51919e-07 9.2383 -5.02314 -0.0826616 0.759353 0.154739 
-90.1294 84.6366 18.4031 -125.224 85.4745 -56.5675 0.375892 0.0126102 8.57058 -2.15478 6.29723 2.52486 2.84217e-14 -3.55271e-15 12.2259 1.78087 -7.34314 -0.457592 -1.42109e-14 -1.77636e-15 14.2636 0.158843 -2.77514 -0.317928 1.42109e-14 0 14.2636 8.50434 10.8183 -1.76422 0.863006 4.34015 8.57778 -11.174 -3.66473 -1.18154 -2.62842 -0.756112 5.10292 -1.25067 0.287002 -8.78943 -15.9557 1.06581e-14 1.42109e-14 -74.4687 -15.662 -62.6682 -22.6608 -7.10543e-15 -3.55271e-14 -23.5317 27.6324 1.56271 -11.8302 8.52651e-14 1.42109e-14 1.59028e-15 0 -0 -11.8302 -2.84217e-14 -4.9738e-14 10.2706 -3.21368 1.5329 2.71631 -0.85971 5.09985 2.61315 -1.45524 11.9398 16.2908 -7.10543e-15 0 43.9852 1.20476 57.9832 24.1043 7.10543e-15 -1.42109e-14 19.1452 1.73515 8.17654 10.9796 3.55271e-14 1.42109e-14 7.95139e-15 0 -0 10.9796 -2.13163e-14 -2.84217e-14 -12.7119 2.55641 -6.57699 -7.73585 -0.626045 -0.132254 5.24889 14.7517 2.39273 4.26326e-14 -0.344939 -39.5261 -2.32434 -16.0477 -0.0359574 -3.35945e-11 -1.9824 -37.8264 -2.76146 7.43749 -0.195006 -8.70401e-08 9.39699 -5.78644 -0.0358612 1.27086 -0.603348 7.73585 -0.626045 -0.132254 -12.2087 14.8815 1.73022 5.68434e-14 -0.340593 -39.0281 -0.871566 -18.7558 -3.16322 -4.34383e-10 -2.02699 -38.6773 2.96772 8.09387 2.92463 1.51919e-07 9.2383 -5.02314 -0.0823567 0.759262 0.154957 
-90.1374 84.6359 18.3791 -125.053 85.4832 -56.738 0.375892 0.0126102 8.57058 -2.15648 6.28522 2.52191 4.26326e-14 -3.55271e-15 12.2259 1.77933 -7.34666 -0.456654 -1.42109e-14 0 14.2636 0.157355 -2.77941 -0.317892 2.84217e-14 -3.55271e-15 14.2636 8.50373 10.8156 -1.76342 0.863006 4.34015 8.57778 -11.1744 -3.66802 -1.17978 -2.62842 -0.756112 5.10292 -1.25412 0.28329 -8.80513 -15.9557 1.06581e-14 0 -74.4755 -15.6389 -62.6755 -22.6608 -2.13163e-14 -3.55271e-14 -23.549 27.6301 1.56345 -11.8302 9.9476e-14 1.42109e-14 -6.36111e-15 3.18055e-15 6.36111e-15 -11.8302 -1.42109e-14 -5.32907e-14 10.2696 -3.21388 1.53251 2.71631 -0.85971 5.09985 2.61368 -1.45417 11.9577 16.2908 -1.06581e-14 2.84217e-14 43.9892 1.22453 57.9866 24.1043 0 0 19.1494 1.7358 8.18144 10.9796 3.19744e-14 1.42109e-14 6.36111e-15 3.18055e-15 -0 10.9796 -7.10543e-15 -1.42109e-14 -12.7126 2.55543 -6.57571 -7.73585 -0.626045 -0.132254 5.24799 14.7596 2.39477 2.84217e-14 -0.344939 -39.5261 -2.3243 -16.0489 -0.0344893 -3.35945e-11 -1.9824 -37.8264 -2.76115 7.43509 -0.194892 -8.70401e-08 9.39699 -5.78644 -0.0348378 1.27012 -0.603935 7.73585 -0.626045 -0.132254 -12.2081 14.8905 1.73328 4.26326e-14 -0.340593 -39.0281 -0.869835 -18.7573 -3.16054 -4.34369e-10 -2.02699 -38.6773 2.96875 8.09238 2.92528 1.51919e-07 9.2383 -5.02314 -0.0820602 0.759018 0.155173 
